<svg xmlns="http://www.w3.org/2000/svg" version="1.1" xmlns:xlink="http://www.w3.org/1999/xlink" xmlns:svgjs="http://svgjs.dev/svgjs" width="1440" height="800" preserveAspectRatio="none" viewBox="0 0 1440 800"><g mask="url(&quot;#SvgjsMask1090&quot;)" fill="none"><rect width="1440" height="800" x="0" y="0" fill="rgba(240, 242, 245, 1)"></rect><path d="M37 800L837 0L1537.5 0L737.5 800z" fill="url(&quot;#SvgjsLinearGradient1091&quot;)"></path><path d="M548.2 800L1348.2 0L1760.7 0L960.7 800z" fill="url(&quot;#SvgjsLinearGradient1091&quot;)"></path><path d="M1371 800L571 0L361 0L1161 800z" fill="url(&quot;#SvgjsLinearGradient1092&quot;)"></path><path d="M952.8 800L152.79999999999995 0L-504.20000000000005 0L295.79999999999995 800z" fill="url(&quot;#SvgjsLinearGradient1092&quot;)"></path><path d="M958.5586090188897 800L1440 318.5586090188897L1440 800z" fill="url(&quot;#SvgjsLinearGradient1091&quot;)"></path><path d="M0 800L481.4413909811103 800L 0 318.5586090188897z" fill="url(&quot;#SvgjsLinearGradient1092&quot;)"></path></g><defs><mask id="SvgjsMask1090"><rect width="1440" height="800" fill="#ffffff"></rect></mask><linearGradient x1="0%" y1="100%" x2="100%" y2="0%" id="SvgjsLinearGradient1091"><stop stop-color="rgba(150, 155, 177, 1)" offset="0"></stop><stop stop-opacity="0" stop-color="rgba(150, 155, 177, 1)" offset="0.66"></stop></linearGradient><linearGradient x1="100%" y1="100%" x2="0%" y2="0%" id="SvgjsLinearGradient1092"><stop stop-color="rgba(150, 155, 177, 1)" offset="0"></stop><stop stop-opacity="0" stop-color="rgba(150, 155, 177, 1)" offset="0.66"></stop></linearGradient></defs></svg>